<?xml version="1.0" encoding="utf-8"?>
<!-- Generator: Adobe Illustrator 22.0.1, SVG Export Plug-In . SVG Version: 6.00 Build 0)  -->
<svg version="1.1" id="Layer_1" xmlns="http://www.w3.org/2000/svg" xmlns:xlink="http://www.w3.org/1999/xlink" x="0px" y="0px"
	 viewBox="0 0 169.6 204.5" style="enable-background:new 0 0 169.6 204.5;" xml:space="preserve">
<style type="text/css">
	.st0{fill:#EAEAEA;}
	.st1{fill:#77D89E;}
	.st2{font-family:'Gotham-Book';}
	.st3{font-size:84px;}
</style>
<g>
	<path class="st0" d="M6.2,160.4L6.2,160.4c0-9.9,7.7-17.6,18.1-17.6c5.9,0,10.1,1.8,13.6,4.9l-5.5,6.6c-2.4-2-4.8-3.2-8.1-3.2
		c-4.8,0-8.6,4.1-8.6,9.2v0.1c0,5.4,3.8,9.3,9.1,9.3c2.3,0,4-0.5,5.4-1.4v-4.1h-6.6v-6.8h15.5v15.1c-3.6,2.9-8.5,5.2-14.6,5.2
		C14,177.8,6.2,170.6,6.2,160.4z"/>
	<path class="st0" d="M42.7,164.2L42.7,164.2c0-7.5,6-13.7,14.4-13.7c8.3,0,14.3,6.1,14.3,13.5v0.1c0,7.4-6,13.6-14.4,13.6
		C48.7,177.7,42.7,171.6,42.7,164.2z M62.5,164.2L62.5,164.2c0-3.3-2.3-6-5.5-6c-3.3,0-5.4,2.6-5.4,5.8v0.1c0,3.2,2.3,5.9,5.5,5.9
		C60.4,170,62.5,167.4,62.5,164.2z"/>
	<path class="st0" d="M75.7,143.5h9.3v25.4h16.3v8.2H75.7V143.5z"/>
	<path class="st0" d="M103.5,169.7L103.5,169.7c0-5.5,4.1-8.3,10.2-8.3c2.4,0,4.8,0.5,6.2,1V162c0-2.7-1.7-4.2-5.2-4.2
		c-2.7,0-4.8,0.5-7.2,1.4l-1.9-6.4c2.9-1.2,6-2,10.5-2c4.7,0,7.8,1.1,9.9,3.2c2,1.9,2.8,4.6,2.8,8.3v14.9h-9v-2.7
		c-1.8,2-4.2,3.3-7.6,3.3C107.3,177.7,103.5,174.8,103.5,169.7z M120,167.7v-1.2c-0.9-0.4-2.2-0.7-3.6-0.7c-2.6,0-4.2,1.3-4.2,3.2
		v0.1c0,1.8,1.3,2.8,3.2,2.8C118.1,172,120,170.3,120,167.7z"/>
	<path class="st0" d="M142.7,173.9v3.2h-9.1v-35h9.1v12.5c1.8-2.2,4-4,7.9-4c6.2,0,11.5,5.1,11.5,13.4v0.1c0,8.4-5.3,13.6-11.5,13.6
		C146.6,177.7,144.3,175.9,142.7,173.9z M153.1,164.1L153.1,164.1c0-3.5-2.4-6-5.3-6c-2.9,0-5.3,2.4-5.3,5.9v0.1
		c0,3.5,2.4,5.9,5.3,5.9C150.7,170,153.1,167.6,153.1,164.1z"/>
</g>
<g>
	<path class="st1" d="M26.8,186.9h4.8c2.8,0,4.7,1.5,4.7,3.9v0c0,2.6-2,4-4.8,4h-1.5v3.2h-3.1V186.9z M31.3,192.5
		c1.1,0,1.8-0.6,1.8-1.5v0c0-1-0.7-1.5-1.8-1.5h-1.5v3H31.3z"/>
	<path class="st1" d="M37.5,186.9h3.1v8.5h5.4v2.7h-8.5V186.9z"/>
	<path class="st1" d="M51.3,186.8h3l4.8,11.3h-3.3l-0.8-2h-4.3l-0.8,2h-3.3L51.3,186.8z M54,193.7l-1.2-3.2l-1.3,3.2H54z"/>
	<path class="st1" d="M61.6,193.9l-4.3-7h3.5l2.3,4.1l2.3-4.1H69l-4.3,7v4.2h-3.1V193.9z"/>
	<path class="st1" d="M68.5,192.5L68.5,192.5c0-3.3,2.6-5.9,6-5.9c2,0,3.4,0.6,4.5,1.6l-1.8,2.2c-0.8-0.7-1.6-1.1-2.7-1.1
		c-1.6,0-2.9,1.4-2.9,3.1v0c0,1.8,1.3,3.1,3,3.1c0.8,0,1.3-0.2,1.8-0.5v-1.4h-2.2v-2.3h5.2v5c-1.2,1-2.8,1.7-4.9,1.7
		C71.1,198.3,68.5,195.9,68.5,192.5z"/>
	<path class="st1" d="M81.2,186.9h5.3c1.7,0,2.9,0.4,3.6,1.2c0.7,0.6,1,1.5,1,2.6v0c0,1.7-0.9,2.8-2.3,3.4l2.7,3.9h-3.6l-2.3-3.4
		h-1.4v3.4h-3.1V186.9z M86.3,192.3c1.1,0,1.7-0.5,1.7-1.3v0c0-0.9-0.6-1.3-1.7-1.3h-2v2.7H86.3z"/>
	<path class="st1" d="M92.3,192.5L92.3,192.5c0-3.2,2.6-5.9,6.1-5.9s6,2.6,6,5.8v0c0,3.2-2.6,5.8-6.1,5.8
		C94.9,198.3,92.3,195.8,92.3,192.5z M101.2,192.5L101.2,192.5c0-1.6-1.2-3.1-2.9-3.1c-1.7,0-2.8,1.4-2.8,3v0c0,1.6,1.2,3,2.9,3
		C100.1,195.5,101.2,194.2,101.2,192.5z"/>
	<path class="st1" d="M105.8,193.2v-6.3h3.2v6.2c0,1.6,0.8,2.4,2.1,2.4s2.1-0.7,2.1-2.3v-6.3h3.2v6.2c0,3.6-2.1,5.2-5.2,5.2
		C107.8,198.3,105.8,196.7,105.8,193.2z"/>
	<path class="st1" d="M118.1,186.9h2.9l4.6,5.9v-5.9h3.1v11.2H126l-4.8-6.1v6.1h-3.1V186.9z"/>
	<path class="st1" d="M130.7,186.9h4.3c4,0,6.3,2.3,6.3,5.5v0c0,3.2-2.4,5.6-6.4,5.6h-4.3V186.9z M135,195.4c1.9,0,3.1-1,3.1-2.8v0
		c0-1.8-1.2-2.8-3.1-2.8h-1.3v5.7H135z"/>
</g>
<text transform="matrix(1 0 0 1 4.1976 114.4983)" class="st0 st2 st3">{</text>
<g id="hjBkhL_1_">
	<g>
		<g>
			<path class="st0" d="M78.3,45.2c0,5.2,0,10.4,0,15.6c0,0.7-0.3,1-0.8,1.2c-1.9,0.8-3.8,1.6-5.7,2.6c-1.9,0.9-3.5,2.2-5.1,3.6
				c-2,1.7-3.6,3.6-5,5.8c-1.4,2.1-2.5,4.3-3.2,6.8c-0.3,1.2-0.7,2.4-1,3.7c-0.4,2.1-0.5,4.3-0.3,6.5c0.1,2.2,0.5,4.4,1.1,6.4
				c0.7,2.1,1.6,4.2,2.7,6.1c1.5,2.4,3.2,4.6,5.3,6.6c1.6,1.4,3.3,2.7,5.2,3.7c1.6,0.9,3.3,1.7,5.1,2.2c1.2,0.4,2.5,0.7,3.8,0.9
				c1.4,0.2,2.9,0.4,4.4,0.4c1.7,0,3.4-0.3,5-0.4c2.1-0.2,4-0.9,5.9-1.6c2-0.8,4-1.9,5.8-3.2c2.1-1.6,4.1-3.4,5.7-5.5
				c1.8-2.3,3.2-4.8,4.2-7.5c0.6-1.6,0.9-3.2,1.3-4.8c0.2-0.9,0.3-1.9,0.3-2.8c0.1-1,0.2-2,0.1-3c-0.1-1.5-0.2-2.9-0.5-4.3
				c-0.4-1.7-0.8-3.4-1.4-5.1c-0.6-1.6-1.4-3.1-2.3-4.6c-1.3-2.1-2.8-4-4.6-5.7c-1.6-1.4-3.2-2.8-5.1-3.7c-2.1-1-4.2-2-6.3-3
				c-0.5-0.2-0.8-0.5-0.8-1.2c0-10.5,0-20.9,0-31.4c0-1.9,1.6-3.6,3.6-3.6c2.3,0,4.7,0,7,0c1.9,0,3.3,1.3,3.5,3.1
				c0.3,1.8-0.8,3.3-2.5,3.9c-0.4,0.1-0.8,0.1-1.1,0.1c-0.9,0-1.9,0-2.8,0c-0.5,0-0.6,0.2-0.6,0.6c0,0.1,0,0.1,0,0.2
				c0,7.5,0,14.9,0,22.4c0,0.5,0.1,0.8,0.6,1.1c2.4,1.1,4.7,2.5,6.8,4.1c1.8,1.4,3.4,2.9,4.9,4.6c1.8,2,3.3,4.1,4.5,6.5
				c0.9,1.7,1.6,3.4,2.2,5.2c0.5,1.4,0.9,2.9,1.3,4.4c0.3,1.2,0.4,2.4,0.5,3.6c0.1,1.6,0.2,3.2,0.2,4.8c0,1.4-0.2,2.8-0.4,4.2
				c-0.1,1.1-0.3,2.2-0.6,3.3c-0.3,1.2-0.7,2.4-1.2,3.5c-0.4,1.1-0.8,2.1-1.3,3.1c-0.7,1.4-1.5,2.8-2.4,4.2
				c-1.2,2.1-2.9,3.9-4.6,5.6c-1.7,1.7-3.5,3.1-5.5,4.4c-1.7,1.1-3.4,2.1-5.3,2.8c-1.6,0.6-3.2,1.3-4.9,1.7
				c-1.4,0.4-2.9,0.6-4.4,0.8c-1.8,0.2-3.7,0.4-5.5,0.3c-1.7,0-3.4-0.3-5.1-0.5c-1-0.1-2.1-0.3-3-0.6c-1.8-0.6-3.5-1.2-5.2-1.9
				c-2.9-1.2-5.5-2.8-7.8-4.8c-1.5-1.3-3-2.7-4.4-4.2c-1.9-2.1-3.5-4.3-4.7-6.8c-0.8-1.7-1.6-3.3-2.2-5.1c-0.5-1.5-0.9-3.1-1.2-4.7
				c-0.3-1.7-0.5-3.5-0.7-5.2c-0.1-1.3,0-2.6,0.1-3.9c0.1-1.2,0.2-2.3,0.3-3.4c0.1-1,0.4-1.9,0.6-2.8c0.6-2.2,1.3-4.3,2.3-6.4
				c1.1-2.3,2.5-4.5,4.1-6.6c1.4-1.9,3.1-3.5,4.9-5.1c2.6-2.2,5.4-4,8.5-5.4c0.1-0.1,0.2-0.3,0.3-0.4c0-0.1,0-0.2,0-0.3
				c0-7.5,0-15.1,0-22.6c0-0.7,0-0.7-0.8-0.7c-0.9,0-1.7,0-2.6,0c-2.2,0-3.9-1.8-3.7-3.9c0.1-1.4,1.1-2.7,2.7-3.1
				c0.3-0.1,0.7-0.1,1.1-0.1c2.2,0,4.4,0,6.6,0c2.1,0,3.7,1.6,3.7,3.7C78.3,34.8,78.3,40,78.3,45.2z"/>
			<path class="st1" d="M60.6,89.2c-0.1-2.4,0.3-4.6,1-6.9c0.3-1.1,0.8-2.2,1.2-3.4c0.1-0.3,0.3-0.3,0.6-0.3
				c3.1,0.7,6.3,1.1,9.5,0.9c5-0.3,9.9-1,14.8-2.5c6.6-2.1,13-1.3,19.3,1.4c0.5,0.2,0.8,0.5,1,1c0.5,1.7,1.1,3.4,1.6,5.1
				c0.3,1.1,0.3,2.3,0.4,3.4c0.1,0.9,0.1,1.8,0,2.6c-0.1,1.3-0.3,2.5-0.5,3.8c-0.3,1.8-0.9,3.5-1.7,5.2c-0.8,1.8-1.8,3.4-3,4.9
				c-0.9,1.1-1.9,2.1-2.9,3.1c-1.3,1.3-2.9,2.3-4.5,3.2c-1.8,1.1-3.8,1.9-5.9,2.3c-1.2,0.3-2.5,0.5-3.8,0.6c-1.3,0.1-2.7,0.2-4,0.1
				c-1.7-0.1-3.4-0.4-5-0.8c-1.9-0.5-3.6-1.3-5.3-2.2c-2.3-1.3-4.3-2.8-6.1-4.7c-2.3-2.5-4.1-5.4-5.2-8.7c-0.5-1.6-0.9-3.3-1.2-4.9
				C60.6,91.5,60.7,90.3,60.6,89.2z M74.9,101.6c4.8,0,8.6-3.8,8.7-8.6c0-4.8-3.9-8.7-8.6-8.7c-4.8,0-8.6,3.9-8.6,8.6
				C66.3,97.7,70.2,101.5,74.9,101.6z M95.5,102.9c0-2.4-1.9-4.4-4.2-4.4c-2.4-0.1-4.4,1.8-4.5,4.3c0,2.4,1.9,4.4,4.3,4.4
				C93.5,107.2,95.5,105.3,95.5,102.9z"/>
			<path class="st1" d="M80.7,4.5c2.5,0,4.4,2,4.4,4.4c0,2.4-2,4.4-4.5,4.4c-2.4,0-4.4-2-4.4-4.4C76.3,6.5,78.2,4.5,80.7,4.5z"/>
			<path class="st1" d="M93.3,16.4c0,1.8-1.4,3.3-3.3,3.3c-1.9,0-3.3-1.5-3.3-3.3c0-1.8,1.5-3.3,3.3-3.3
				C91.8,13.1,93.2,14.6,93.3,16.4z"/>
			<path class="st1" d="M82.3,21c1.3,0,2.4,1.1,2.4,2.4c0,1.3-1.1,2.4-2.4,2.4c-1.3,0-2.4-1.1-2.3-2.4C79.9,22,81,21,82.3,21z"/>
		</g>
	</g>
</g>
<text transform="matrix(1 0 0 1 125.1976 114.4983)" class="st0 st2 st3">}</text>
</svg>
